<svg width="21" height="22" viewBox="0 0 21 22" fill="none" xmlns="http://www.w3.org/2000/svg">
<path d="M10.5 0.570618C4.75004 0.570618 0.083374 5.23728 0.083374 10.9873C0.083374 16.7373 4.75004 21.404 10.5 21.404C16.25 21.404 20.9167 16.7373 20.9167 10.9873C20.9167 5.23728 16.25 0.570618 10.5 0.570618ZM10.5 3.69562C12.2292 3.69562 13.625 5.09145 13.625 6.82062C13.625 8.54979 12.2292 9.94562 10.5 9.94562C8.77087 9.94562 7.37504 8.54979 7.37504 6.82062C7.37504 5.09145 8.77087 3.69562 10.5 3.69562ZM10.5 18.4873C7.89587 18.4873 5.59379 17.154 4.25004 15.1331C4.28129 13.0602 8.41671 11.9248 10.5 11.9248C12.573 11.9248 16.7188 13.0602 16.75 15.1331C15.4063 17.154 13.1042 18.4873 10.5 18.4873Z" fill="#818181"/>
</svg>
